<?xml version="1.0" encoding="UTF-8" standalone="no"?>
<svg
   xmlns:dc="http://purl.org/dc/elements/1.1/"
   xmlns:cc="http://creativecommons.org/ns#"
   xmlns:rdf="http://www.w3.org/1999/02/22-rdf-syntax-ns#"
   xmlns:svg="http://www.w3.org/2000/svg"
   xmlns="http://www.w3.org/2000/svg"
   xmlns:sodipodi="http://sodipodi.sourceforge.net/DTD/sodipodi-0.dtd"
   xmlns:inkscape="http://www.inkscape.org/namespaces/inkscape"
   width="93.268013mm"
   height="56.474941mm"
   viewBox="0 0 93.268013 56.474941"
   version="1.1"
   id="svg8"
   inkscape:version="1.0.1 (3bc2e813f5, 2020-09-07)"
   sodipodi:docname="logo.svg">
  <defs
     id="defs2">
    <rect
       x="167.04346"
       y="109.31324"
       width="132.56569"
       height="101.82969"
       id="rect843" />
  </defs>
  <sodipodi:namedview
     id="base"
     pagecolor="#ffffff"
     bordercolor="#666666"
     borderopacity="1.0"
     inkscape:pageopacity="0.0"
     inkscape:pageshadow="2"
     inkscape:zoom="0.98994949"
     inkscape:cx="-62.267175"
     inkscape:cy="-42.017218"
     inkscape:document-units="mm"
     inkscape:current-layer="text835"
     inkscape:document-rotation="0"
     showgrid="false"
     showguides="false"
     inkscape:window-width="1920"
     inkscape:window-height="986"
     inkscape:window-x="-11"
     inkscape:window-y="-11"
     inkscape:window-maximized="1"
     lock-margins="true"
     fit-margin-top="5"
     fit-margin-left="5"
     fit-margin-right="5"
     fit-margin-bottom="5" />
  <metadata
     id="metadata5">
    <rdf:RDF>
      <cc:Work
         rdf:about="">
        <dc:format>image/svg+xml</dc:format>
        <dc:type
           rdf:resource="http://purl.org/dc/dcmitype/StillImage" />
        <dc:title></dc:title>
      </cc:Work>
    </rdf:RDF>
  </metadata>
  <g
     inkscape:label="Layer 1"
     inkscape:groupmode="layer"
     id="layer1"
     transform="translate(-58.919813,-32.048534)">
    <g
       aria-label="&gt;&lt;&gt;"
       id="text835"
       style="font-style:normal;font-weight:normal;font-size:70.5556px;line-height:1.25;font-family:sans-serif;fill:#000000;fill-opacity:1;stroke:none;stroke-width:0.264583">
      <path
         d="M 63.919813,37.048534 86.967517,51.138985 H 74.427361 L 63.919813,45.075612 Z m 10.507548,14.090451 h 12.540156 l -23.047704,14.1249 v -8.095979 z"
         style="fill:#2e75b6;fill-opacity:1"
         id="path876" />
      <path
         d="M 104.33081,51.138985 H 91.790654 L 114.83836,37.048534 v 8.027078 z m 10.50755,14.1249 -23.047706,-14.1249 h 12.540156 l 10.50755,6.028921 z"
         style="fill:#9dc3e6;fill-opacity:1"
         id="path878" />
      <path
         d="m 124.14012,37.048534 23.04771,14.090451 h -12.54016 l -10.50755,-6.063373 z m 10.50755,14.090451 h 12.54016 l -23.04771,14.1249 v -8.095979 z"
         style="fill:#9dc3e6;fill-opacity:1"
         id="path880" />
    </g>
    <g
       aria-label="flosse.works"
       id="text839"
       style="font-style:normal;font-weight:normal;font-size:14.8167px;line-height:1.25;font-family:sans-serif;fill:#000000;fill-opacity:1;stroke:none;stroke-width:0.264583">
      <path
         d="m 65.100901,74.885224 q 0,-0.998391 0.455787,-1.490352 0.463022,-0.499195 1.418005,-0.499195 H 68.0599 v 1.403535 h -1.056268 q -0.209807,0 -0.318328,0.159164 -0.108521,0.159164 -0.108521,0.412379 v 8.5442 h -1.475882 z m -0.795819,1.020095 H 68.0599 v 1.258841 h -3.754818 z"
         style="font-style:normal;font-variant:normal;font-weight:normal;font-stretch:normal;font-size:14.8167px;font-family:Bahnschrift;-inkscape-font-specification:Bahnschrift;text-align:center;text-anchor:middle;fill:#9dc3e6;fill-opacity:1;stroke-width:0.264583"
         id="path851" />
      <path
         d="m 71.055073,81.476051 q 0,0.274919 0.115755,0.426848 0.122991,0.144695 0.340032,0.144695 h 0.694533 v 1.403535 h -0.868166 q -0.839227,0 -1.302249,-0.5209 -0.455787,-0.520899 -0.455787,-1.468647 v -8.565905 h 1.475882 z"
         style="font-style:normal;font-variant:normal;font-weight:normal;font-stretch:normal;font-size:14.8167px;font-family:Bahnschrift;-inkscape-font-specification:Bahnschrift;text-align:center;text-anchor:middle;fill:#9dc3e6;fill-opacity:1;stroke-width:0.264583"
         id="path853" />
      <path
         d="m 76.748794,83.523476 q -0.976686,0 -1.671219,-0.38344 -0.694533,-0.38344 -1.063503,-1.114146 -0.361736,-0.737942 -0.361736,-1.772506 v -1.222667 q 0,-1.020095 0.361736,-1.743567 0.36897,-0.730706 1.063503,-1.106912 0.694533,-0.38344 1.671219,-0.38344 0.976687,0 1.67122,0.38344 0.694533,0.376206 1.056269,1.106912 0.36897,0.723472 0.36897,1.743567 v 1.244371 q 0,1.02733 -0.36897,1.758036 -0.361736,0.723472 -1.056269,1.106912 -0.694533,0.38344 -1.67122,0.38344 z m 0,-1.403535 q 0.774115,0 1.193729,-0.484726 0.426848,-0.484726 0.426848,-1.360127 v -1.244371 q 0,-0.875401 -0.426848,-1.352892 -0.419614,-0.477492 -1.193729,-0.477492 -0.774114,0 -1.200962,0.477492 -0.419614,0.477491 -0.419614,1.352892 v 1.244371 q 0,0.875401 0.419614,1.360127 0.426848,0.484726 1.200962,0.484726 z"
         style="font-style:normal;font-variant:normal;font-weight:normal;font-stretch:normal;font-size:14.8167px;font-family:Bahnschrift;-inkscape-font-specification:Bahnschrift;text-align:center;text-anchor:middle;fill:#9dc3e6;fill-opacity:1;stroke-width:0.264583"
         id="path855" />
      <path
         d="m 84.598462,83.523476 q -0.665594,0 -1.251606,-0.130225 -0.578777,-0.130225 -1.085207,-0.390675 -0.50643,-0.26045 -0.933279,-0.651124 v 0 l 0.875401,-1.077973 v 0 q 0.607716,0.463022 1.208198,0.694533 0.600481,0.231511 1.186493,0.231511 0.875401,0 1.309484,-0.267685 0.441318,-0.274919 0.441318,-0.817523 0,-0.361736 -0.238746,-0.542604 -0.238745,-0.180867 -0.593247,-0.238745 -0.354501,-0.06511 -0.998391,-0.115756 -0.05788,0 -0.12299,0 -0.06511,-0.0072 -0.12299,-0.01447 -0.02894,0 -0.05788,0 -0.02894,-0.0072 -0.05788,-0.0072 -0.730707,-0.05788 -1.237137,-0.209807 -0.50643,-0.159163 -0.846462,-0.586012 -0.332797,-0.426848 -0.332797,-1.222667 0,-0.795819 0.325562,-1.323953 0.325563,-0.528134 0.969453,-0.788584 0.643889,-0.267685 1.613341,-0.267685 0.586012,0 1.114147,0.108521 0.535369,0.108521 1.020095,0.325562 0.484726,0.209807 0.933278,0.535369 v 0 l -0.88987,1.077973 v 0 Q 86.262442,77.482521 85.712604,77.301653 85.17,77.120786 84.6491,77.120786 q -0.75241,0 -1.128615,0.260449 -0.376206,0.253215 -0.376206,0.76688 0,0.303858 0.209807,0.455787 0.217042,0.15193 0.542604,0.202573 0.325562,0.05064 0.926044,0.08682 0.04341,0.0072 0.08682,0.0072 0.05064,0 0.101286,0.0072 0.0217,0 0.04341,0 0.0217,0 0.04341,0.0072 0.788584,0.05064 1.338422,0.209807 0.557074,0.159164 0.933279,0.62942 0.376205,0.470257 0.376205,1.360127 0,0.810288 -0.347266,1.345658 -0.347267,0.528134 -1.049034,0.795818 -0.694533,0.267685 -1.750802,0.267685 z"
         style="font-style:normal;font-variant:normal;font-weight:normal;font-stretch:normal;font-size:14.8167px;font-family:Bahnschrift;-inkscape-font-specification:Bahnschrift;text-align:center;text-anchor:middle;fill:#9dc3e6;fill-opacity:1;stroke-width:0.264583"
         id="path857" />
      <path
         d="m 92.281732,83.523476 q -0.665594,0 -1.251606,-0.130225 -0.578777,-0.130225 -1.085208,-0.390675 -0.50643,-0.26045 -0.933278,-0.651124 v 0 l 0.875401,-1.077973 v 0 q 0.607716,0.463022 1.208197,0.694533 0.600482,0.231511 1.186494,0.231511 0.875401,0 1.309484,-0.267685 0.441317,-0.274919 0.441317,-0.817523 0,-0.361736 -0.238745,-0.542604 -0.238746,-0.180867 -0.593247,-0.238745 -0.354501,-0.06511 -0.998391,-0.115756 -0.05788,0 -0.12299,0 -0.06511,-0.0072 -0.12299,-0.01447 -0.02894,0 -0.05788,0 -0.02894,-0.0072 -0.05788,-0.0072 -0.730706,-0.05788 -1.237136,-0.209807 -0.506431,-0.159163 -0.846462,-0.586012 -0.332797,-0.426848 -0.332797,-1.222667 0,-0.795819 0.325562,-1.323953 0.325562,-0.528134 0.969452,-0.788584 0.64389,-0.267685 1.613342,-0.267685 0.586012,0 1.114146,0.108521 0.535369,0.108521 1.020095,0.325562 0.484726,0.209807 0.933279,0.535369 v 0 l -0.88987,1.077973 v 0 q -0.564308,-0.361736 -1.114147,-0.542604 -0.542604,-0.180867 -1.063503,-0.180867 -0.752411,0 -1.128616,0.260449 -0.376205,0.253215 -0.376205,0.76688 0,0.303858 0.209807,0.455787 0.217041,0.15193 0.542603,0.202573 0.325563,0.05064 0.926044,0.08682 0.04341,0.0072 0.08682,0.0072 0.05064,0 0.101286,0.0072 0.0217,0 0.04341,0 0.0217,0 0.04341,0.0072 0.788584,0.05064 1.338423,0.209807 0.557073,0.159164 0.933278,0.62942 0.376206,0.470257 0.376206,1.360127 0,0.810288 -0.347267,1.345658 -0.347266,0.528134 -1.049034,0.795818 -0.694532,0.267685 -1.750801,0.267685 z"
         style="font-style:normal;font-variant:normal;font-weight:normal;font-stretch:normal;font-size:14.8167px;font-family:Bahnschrift;-inkscape-font-specification:Bahnschrift;text-align:center;text-anchor:middle;fill:#9dc3e6;fill-opacity:1;stroke-width:0.264583"
         id="path859" />
      <path
         d="m 100.38461,83.523476 q -1.041796,0 -1.779737,-0.390675 -0.737941,-0.390675 -1.128616,-1.143085 -0.38344,-0.759645 -0.38344,-1.830383 v -0.846462 q 0,-1.114147 0.36897,-1.902731 0.376206,-0.788584 1.085208,-1.200963 0.709002,-0.412379 1.707395,-0.412379 0.94051,0 1.60611,0.470257 0.66559,0.470257 1.01286,1.360127 0.3545,0.88987 0.3545,2.134241 v 0.491961 H 98.163555 V 79.06689 h 3.660765 v 0 q -0.0651,-0.918809 -0.47749,-1.425239 -0.40514,-0.513665 -1.09244,-0.513665 -0.839229,0 -1.302251,0.549839 -0.455787,0.549838 -0.455787,1.555464 v 0.954982 q 0,0.933279 0.491961,1.432474 0.49196,0.499196 1.396297,0.499196 0.44856,0 0.88987,-0.180868 0.44132,-0.180868 0.78859,-0.50643 v 0 l 0.96945,0.969452 v 0 q -0.55707,0.535369 -1.25161,0.831992 -0.69453,0.289389 -1.3963,0.289389 z"
         style="font-style:normal;font-variant:normal;font-weight:normal;font-stretch:normal;font-size:14.8167px;font-family:Bahnschrift;-inkscape-font-specification:Bahnschrift;text-align:center;text-anchor:middle;fill:#9dc3e6;fill-opacity:1;stroke-width:0.264583"
         id="path861" />
      <path
         d="m 104.71097,81.866726 h 1.54823 v 1.548229 h -1.54823 z"
         style="font-style:normal;font-variant:normal;font-weight:normal;font-stretch:normal;font-size:14.8167px;font-family:Bahnschrift;-inkscape-font-specification:Bahnschrift;text-align:center;text-anchor:middle;fill:#9dc3e6;fill-opacity:1;stroke-width:0.264583"
         id="path863" />
      <path
         d="m 106.80181,75.905319 h 1.54099 l 1.33119,5.360925 1.87379,-5.360925 h 1.02733 l 1.87379,5.360925 1.33119,-5.360925 h 1.541 l -2.31511,7.509636 h -1.11415 l -1.83038,-5.187292 -1.83039,5.187292 h -1.11414 z"
         style="font-style:normal;font-variant:normal;font-weight:normal;font-stretch:normal;font-size:14.8167px;font-family:Bahnschrift;-inkscape-font-specification:Bahnschrift;text-align:center;text-anchor:middle;fill:#9dc3e6;fill-opacity:1;stroke-width:0.264583"
         id="path865" />
      <path
         d="m 121.64745,83.523476 q -0.97669,0 -1.67122,-0.38344 -0.69453,-0.38344 -1.06351,-1.114146 -0.36173,-0.737942 -0.36173,-1.772506 v -1.222667 q 0,-1.020095 0.36173,-1.743567 0.36898,-0.730706 1.06351,-1.106912 0.69453,-0.38344 1.67122,-0.38344 0.97668,0 1.67122,0.38344 0.69453,0.376206 1.05627,1.106912 0.36897,0.723472 0.36897,1.743567 v 1.244371 q 0,1.02733 -0.36897,1.758036 -0.36174,0.723472 -1.05627,1.106912 -0.69454,0.38344 -1.67122,0.38344 z m 0,-1.403535 q 0.77411,0 1.19373,-0.484726 0.42684,-0.484726 0.42684,-1.360127 v -1.244371 q 0,-0.875401 -0.42684,-1.352892 -0.41962,-0.477492 -1.19373,-0.477492 -0.77412,0 -1.20097,0.477492 -0.41961,0.477491 -0.41961,1.352892 v 1.244371 q 0,0.875401 0.41961,1.360127 0.42685,0.484726 1.20097,0.484726 z"
         style="font-style:normal;font-variant:normal;font-weight:normal;font-stretch:normal;font-size:14.8167px;font-family:Bahnschrift;-inkscape-font-specification:Bahnschrift;text-align:center;text-anchor:middle;fill:#9dc3e6;fill-opacity:1;stroke-width:0.264583"
         id="path867" />
      <path
         d="m 126.84197,75.905319 h 1.47589 v 7.509636 h -1.47589 z m 4.13103,1.77974 q -0.19534,-0.238745 -0.49196,-0.361735 -0.29663,-0.122991 -0.6873,-0.122991 -0.70177,0 -1.09244,0.390675 -0.38344,0.38344 -0.38344,1.070738 l -0.15193,-1.446943 q 0.34726,-0.672829 0.8971,-1.041799 0.54984,-0.376206 1.21543,-0.376206 0.51367,0 0.92605,0.151929 0.41961,0.144695 0.7307,0.434083 z"
         style="font-style:normal;font-variant:normal;font-weight:normal;font-stretch:normal;font-size:14.8167px;font-family:Bahnschrift;-inkscape-font-specification:Bahnschrift;text-align:center;text-anchor:middle;fill:#9dc3e6;fill-opacity:1;stroke-width:0.264583"
         id="path869" />
      <path
         d="m 133.80177,80.564477 3.86334,-4.659158 h 1.73633 l -5.69372,6.409959 z m -0.63665,-7.6688 h 1.47588 v 10.519278 h -1.47588 z m 2.38022,6.185683 0.94775,-0.983922 3.27732,5.317517 h -1.6061 z"
         style="font-style:normal;font-variant:normal;font-weight:normal;font-stretch:normal;font-size:14.8167px;font-family:Bahnschrift;-inkscape-font-specification:Bahnschrift;text-align:center;text-anchor:middle;fill:#9dc3e6;fill-opacity:1;stroke-width:0.264583"
         id="path871" />
      <path
         d="m 143.65546,83.523476 q -0.6656,0 -1.25161,-0.130225 -0.57878,-0.130225 -1.08521,-0.390675 -0.50643,-0.26045 -0.93328,-0.651124 v 0 l 0.8754,-1.077973 v 0 q 0.60772,0.463022 1.2082,0.694533 0.60048,0.231511 1.1865,0.231511 0.8754,0 1.30948,-0.267685 0.44132,-0.274919 0.44132,-0.817523 0,-0.361736 -0.23875,-0.542604 -0.23874,-0.180867 -0.59325,-0.238745 -0.3545,-0.06511 -0.99839,-0.115756 -0.0579,0 -0.12299,0 -0.0651,-0.0072 -0.12299,-0.01447 -0.0289,0 -0.0579,0 -0.0289,-0.0072 -0.0579,-0.0072 -0.73071,-0.05788 -1.23714,-0.209807 -0.50643,-0.159163 -0.84646,-0.586012 -0.3328,-0.426848 -0.3328,-1.222667 0,-0.795819 0.32556,-1.323953 0.32557,-0.528134 0.96946,-0.788584 0.64389,-0.267685 1.61334,-0.267685 0.58601,0 1.11415,0.108521 0.53536,0.108521 1.02009,0.325562 0.48473,0.209807 0.93328,0.535369 v 0 l -0.88987,1.077973 v 0 q -0.56431,-0.361736 -1.11415,-0.542604 -0.5426,-0.180867 -1.0635,-0.180867 -0.75241,0 -1.12862,0.260449 -0.3762,0.253215 -0.3762,0.76688 0,0.303858 0.2098,0.455787 0.21705,0.15193 0.54261,0.202573 0.32556,0.05064 0.92604,0.08682 0.0434,0.0072 0.0868,0.0072 0.0506,0 0.10128,0.0072 0.0217,0 0.0434,0 0.0217,0 0.0434,0.0072 0.78859,0.05064 1.33842,0.209807 0.55708,0.159164 0.93328,0.62942 0.37621,0.470257 0.37621,1.360127 0,0.810288 -0.34727,1.345658 -0.34727,0.528134 -1.04903,0.795818 -0.69454,0.267685 -1.7508,0.267685 z"
         style="font-style:normal;font-variant:normal;font-weight:normal;font-stretch:normal;font-size:14.8167px;font-family:Bahnschrift;-inkscape-font-specification:Bahnschrift;text-align:center;text-anchor:middle;fill:#9dc3e6;fill-opacity:1;stroke-width:0.264583"
         id="path873" />
    </g>
  </g>
</svg>
