<?xml version="1.0" encoding="UTF-8" standalone="no"?>
<svg
   xmlns:dc="http://purl.org/dc/elements/1.1/"
   xmlns:cc="http://creativecommons.org/ns#"
   xmlns:rdf="http://www.w3.org/1999/02/22-rdf-syntax-ns#"
   xmlns:svg="http://www.w3.org/2000/svg"
   xmlns="http://www.w3.org/2000/svg"
   xmlns:sodipodi="http://sodipodi.sourceforge.net/DTD/sodipodi-0.dtd"
   xmlns:inkscape="http://www.inkscape.org/namespaces/inkscape"
   width="93.268013mm"
   height="55.416607mm"
   viewBox="0 0 93.268013 55.416607"
   version="1.1"
   id="svg8"
   inkscape:version="1.0.1 (3bc2e813f5, 2020-09-07)"
   sodipodi:docname="logo_paths.svg">
  <defs
     id="defs2">
    <rect
       x="167.04346"
       y="109.31324"
       width="132.56569"
       height="101.82969"
       id="rect843" />
  </defs>
  <sodipodi:namedview
     id="base"
     pagecolor="#ffffff"
     bordercolor="#666666"
     borderopacity="1.0"
     inkscape:pageopacity="0.0"
     inkscape:pageshadow="2"
     inkscape:zoom="0.98994949"
     inkscape:cx="-62.267174"
     inkscape:cy="-42.01722"
     inkscape:document-units="mm"
     inkscape:current-layer="text839"
     inkscape:document-rotation="0"
     showgrid="false"
     showguides="false"
     inkscape:window-width="1920"
     inkscape:window-height="986"
     inkscape:window-x="-11"
     inkscape:window-y="-11"
     inkscape:window-maximized="1"
     lock-margins="true"
     fit-margin-top="5"
     fit-margin-left="5"
     fit-margin-right="5"
     fit-margin-bottom="5" />
  <metadata
     id="metadata5">
    <rdf:RDF>
      <cc:Work
         rdf:about="">
        <dc:format>image/svg+xml</dc:format>
        <dc:type
           rdf:resource="http://purl.org/dc/dcmitype/StillImage" />
        <dc:title></dc:title>
      </cc:Work>
    </rdf:RDF>
  </metadata>
  <g
     inkscape:label="Layer 1"
     inkscape:groupmode="layer"
     id="layer1"
     transform="translate(-58.919813,-32.048534)">
    <g
       aria-label="&gt;&lt;&gt;"
       id="text835"
       style="font-style:normal;font-weight:normal;font-size:70.5556px;line-height:1.25;font-family:sans-serif;fill:#000000;fill-opacity:1;stroke:none;stroke-width:0.264583">
      <path
         d="M 63.919813,37.048534 86.967517,51.138985 H 74.427361 L 63.919813,45.075612 Z m 10.507548,14.090451 h 12.540156 l -23.047704,14.1249 v -8.095979 z"
         style="fill:#2e75b6;fill-opacity:1"
         id="path1495" />
      <path
         d="M 104.33081,51.138985 H 91.790654 L 114.83836,37.048534 v 8.027078 z m 10.50755,14.1249 -23.047706,-14.1249 h 12.540156 l 10.50755,6.028921 z"
         style="fill:#9dc3e6;fill-opacity:1"
         id="path1497" />
      <path
         d="m 124.14012,37.048534 23.04771,14.090451 h -12.54016 l -10.50755,-6.063373 z m 10.50755,14.090451 h 12.54016 l -23.04771,14.1249 v -8.095979 z"
         style="fill:#9dc3e6;fill-opacity:1"
         id="path1499" />
    </g>
    <g
       aria-label="flosse.works"
       id="text839"
       style="font-style:normal;font-weight:normal;font-size:14.8167px;line-height:1.25;font-family:sans-serif;fill:#000000;fill-opacity:1;stroke:none;stroke-width:0.264583">
      <path
         d="m 64.956207,73.82689 q 0,-0.998391 0.455787,-1.490352 0.463022,-0.499195 1.418005,-0.499195 h 1.085207 v 1.403535 h -1.056269 q -0.209806,0 -0.318327,0.159163 -0.108521,0.159164 -0.108521,0.412379 v 8.544201 h -1.475882 z m -0.795819,1.020095 h 3.754818 v 1.25884 h -3.754818 z"
         style="fill:#2e75b6;fill-opacity:1"
         id="path1470" />
      <path
         d="m 70.910379,80.417717 q 0,0.274919 0.115755,0.426848 0.12299,0.144694 0.340032,0.144694 h 0.694533 v 1.403535 h -0.868166 q -0.839228,0 -1.302249,-0.520899 -0.455788,-0.5209 -0.455788,-1.468648 v -8.565904 h 1.475883 z"
         style="fill:#2e75b6;fill-opacity:1"
         id="path1472" />
      <path
         d="m 76.6041,82.465142 q -0.976687,0 -1.671219,-0.38344 -0.694533,-0.38344 -1.063504,-1.114147 -0.361736,-0.737941 -0.361736,-1.772505 v -1.222668 q 0,-1.020095 0.361736,-1.743566 0.368971,-0.730707 1.063504,-1.106912 0.694532,-0.38344 1.671219,-0.38344 0.976687,0 1.67122,0.38344 0.694533,0.376205 1.056268,1.106912 0.368971,0.723471 0.368971,1.743566 v 1.244372 q 0,1.027329 -0.368971,1.758036 -0.361735,0.723472 -1.056268,1.106912 -0.694533,0.38344 -1.67122,0.38344 z m 0,-1.403536 q 0.774115,0 1.193728,-0.484726 0.426849,-0.484726 0.426849,-1.360126 v -1.244372 q 0,-0.8754 -0.426849,-1.352892 -0.419613,-0.477491 -1.193728,-0.477491 -0.774115,0 -1.200963,0.477491 -0.419613,0.477492 -0.419613,1.352892 v 1.244372 q 0,0.8754 0.419613,1.360126 0.426848,0.484726 1.200963,0.484726 z"
         style="fill:#2e75b6;fill-opacity:1"
         id="path1474" />
      <path
         d="m 84.453768,82.465142 q -0.665594,0 -1.251606,-0.130225 -0.578777,-0.130225 -1.085207,-0.390675 -0.506431,-0.26045 -0.933279,-0.651125 v 0 l 0.875401,-1.077972 v 0 q 0.607716,0.463021 1.208197,0.694532 0.600482,0.231511 1.186494,0.231511 0.875401,0 1.309484,-0.267684 0.441317,-0.274919 0.441317,-0.817523 0,-0.361736 -0.238745,-0.542604 -0.238746,-0.180868 -0.593247,-0.238746 -0.354501,-0.06511 -0.998391,-0.115755 -0.05788,0 -0.12299,0 -0.06511,-0.0072 -0.12299,-0.01447 -0.02894,0 -0.05788,0 -0.02894,-0.0072 -0.05788,-0.0072 -0.730706,-0.05788 -1.237136,-0.209807 -0.50643,-0.159164 -0.846462,-0.586012 -0.332797,-0.426848 -0.332797,-1.222667 0,-0.795819 0.325562,-1.323953 0.325562,-0.528135 0.969452,-0.788584 0.64389,-0.267685 1.613342,-0.267685 0.586012,0 1.114146,0.108521 0.535369,0.108521 1.020095,0.325562 0.484727,0.209807 0.933279,0.535369 v 0 l -0.88987,1.077973 v 0 q -0.564308,-0.361736 -1.114147,-0.542604 -0.542603,-0.180868 -1.063503,-0.180868 -0.752411,0 -1.128616,0.26045 -0.376205,0.253215 -0.376205,0.76688 0,0.303858 0.209807,0.455787 0.217041,0.151929 0.542603,0.202572 0.325563,0.05064 0.926044,0.08682 0.04341,0.0072 0.08682,0.0072 0.05064,0 0.101286,0.0072 0.0217,0 0.04341,0 0.0217,0 0.04341,0.0072 0.788585,0.05064 1.338423,0.209807 0.557073,0.159164 0.933279,0.62942 0.376205,0.470257 0.376205,1.360127 0,0.810288 -0.347267,1.345657 -0.347266,0.528134 -1.049034,0.795819 -0.694532,0.267685 -1.750801,0.267685 z"
         style="fill:#2e75b6;fill-opacity:1"
         id="path1476" />
      <path
         d="m 92.137038,82.465142 q -0.665594,0 -1.251606,-0.130225 -0.578778,-0.130225 -1.085208,-0.390675 -0.50643,-0.26045 -0.933278,-0.651125 v 0 l 0.8754,-1.077972 v 0 q 0.607716,0.463021 1.208198,0.694532 0.600481,0.231511 1.186494,0.231511 0.8754,0 1.309483,-0.267684 0.441318,-0.274919 0.441318,-0.817523 0,-0.361736 -0.238746,-0.542604 -0.238745,-0.180868 -0.593246,-0.238746 -0.354502,-0.06511 -0.998391,-0.115755 -0.05788,0 -0.122991,0 -0.06511,-0.0072 -0.12299,-0.01447 -0.02894,0 -0.05788,0 -0.02894,-0.0072 -0.05788,-0.0072 -0.730707,-0.05788 -1.237137,-0.209807 -0.50643,-0.159164 -0.846462,-0.586012 -0.332797,-0.426848 -0.332797,-1.222667 0,-0.795819 0.325563,-1.323953 0.325562,-0.528135 0.969452,-0.788584 0.643889,-0.267685 1.613342,-0.267685 0.586012,0 1.114146,0.108521 0.535369,0.108521 1.020095,0.325562 0.484726,0.209807 0.933278,0.535369 v 0 l -0.88987,1.077973 v 0 q -0.564308,-0.361736 -1.114146,-0.542604 -0.542604,-0.180868 -1.063503,-0.180868 -0.752411,0 -1.128616,0.26045 -0.376206,0.253215 -0.376206,0.76688 0,0.303858 0.209807,0.455787 0.217042,0.151929 0.542604,0.202572 0.325562,0.05064 0.926044,0.08682 0.04341,0.0072 0.08682,0.0072 0.05064,0 0.101286,0.0072 0.02171,0 0.04341,0 0.0217,0 0.04341,0.0072 0.788584,0.05064 1.338423,0.209807 0.557073,0.159164 0.933278,0.62942 0.376205,0.470257 0.376205,1.360127 0,0.810288 -0.347266,1.345657 -0.347266,0.528134 -1.049034,0.795819 -0.694533,0.267685 -1.750801,0.267685 z"
         style="fill:#2e75b6;fill-opacity:1"
         id="path1478" />
      <path
         d="m 100.23992,82.465142 q -1.041801,0 -1.779742,-0.390675 -0.737941,-0.390675 -1.128615,-1.143085 -0.38344,-0.759646 -0.38344,-1.830384 v -0.846462 q 0,-1.114146 0.36897,-1.90273 0.376205,-0.788584 1.085208,-1.200963 0.709002,-0.412379 1.707389,-0.412379 0.94052,0 1.60611,0.470257 0.66559,0.470256 1.01286,1.360126 0.3545,0.889871 0.3545,2.134242 v 0.491961 h -5.064299 v -1.186494 h 3.660769 v 0 q -0.0651,-0.918809 -0.47749,-1.425239 -0.40515,-0.513665 -1.09245,-0.513665 -0.839223,0 -1.302245,0.549838 -0.455787,0.549839 -0.455787,1.555464 v 0.954983 q 0,0.933279 0.49196,1.432474 0.491961,0.499195 1.396302,0.499195 0.44855,0 0.88987,-0.180867 0.44132,-0.180868 0.78858,-0.506431 v 0 l 0.96946,0.969452 v 0 q -0.55708,0.535369 -1.25161,0.831993 -0.69453,0.289389 -1.3963,0.289389 z"
         style="fill:#2e75b6;fill-opacity:1"
         id="path1480" />
      <path
         d="m 104.85567,80.808391 h 1.54823 v 1.54823 h -1.54823 z"
         style="font-style:normal;font-variant:normal;font-weight:normal;font-stretch:normal;font-size:14.8167px;font-family:Bahnschrift;-inkscape-font-specification:Bahnschrift;text-align:center;text-anchor:middle;fill:#9dc3e6;fill-opacity:1;stroke-width:0.264583"
         id="path1482" />
      <path
         d="m 106.9465,74.846985 h 1.541 l 1.33119,5.360925 1.87379,-5.360925 h 1.02733 l 1.87379,5.360925 1.33119,-5.360925 h 1.54099 l -2.31511,7.509636 h -1.11414 l -1.83039,-5.187292 -1.83038,5.187292 h -1.11415 z"
         style="font-style:normal;font-variant:normal;font-weight:normal;font-stretch:normal;font-size:14.8167px;font-family:Bahnschrift;-inkscape-font-specification:Bahnschrift;text-align:center;text-anchor:middle;fill:#9dc3e6;fill-opacity:1;stroke-width:0.264583"
         id="path1484" />
      <path
         d="m 121.79214,82.465142 q -0.97669,0 -1.67122,-0.38344 -0.69453,-0.38344 -1.0635,-1.114147 -0.36174,-0.737941 -0.36174,-1.772505 v -1.222668 q 0,-1.020095 0.36174,-1.743566 0.36897,-0.730707 1.0635,-1.106912 0.69453,-0.38344 1.67122,-0.38344 0.97669,0 1.67122,0.38344 0.69453,0.376205 1.05627,1.106912 0.36897,0.723471 0.36897,1.743566 v 1.244372 q 0,1.027329 -0.36897,1.758036 -0.36174,0.723472 -1.05627,1.106912 -0.69453,0.38344 -1.67122,0.38344 z m 0,-1.403536 q 0.77411,0 1.19373,-0.484726 0.42685,-0.484726 0.42685,-1.360126 v -1.244372 q 0,-0.8754 -0.42685,-1.352892 -0.41962,-0.477491 -1.19373,-0.477491 -0.77411,0 -1.20096,0.477491 -0.41962,0.477492 -0.41962,1.352892 v 1.244372 q 0,0.8754 0.41962,1.360126 0.42685,0.484726 1.20096,0.484726 z"
         style="font-style:normal;font-variant:normal;font-weight:normal;font-stretch:normal;font-size:14.8167px;font-family:Bahnschrift;-inkscape-font-specification:Bahnschrift;text-align:center;text-anchor:middle;fill:#9dc3e6;fill-opacity:1;stroke-width:0.264583"
         id="path1486" />
      <path
         d="m 126.98667,74.846985 h 1.47588 v 7.509636 h -1.47588 z m 4.13102,1.77974 q -0.19534,-0.238746 -0.49196,-0.361736 -0.29662,-0.12299 -0.6873,-0.12299 -0.70177,0 -1.09244,0.390675 -0.38344,0.38344 -0.38344,1.070738 l -0.15193,-1.446943 q 0.34727,-0.672829 0.8971,-1.0418 0.54984,-0.376205 1.21544,-0.376205 0.51366,0 0.92604,0.151929 0.41961,0.144694 0.73071,0.434083 z"
         style="font-style:normal;font-variant:normal;font-weight:normal;font-stretch:normal;font-size:14.8167px;font-family:Bahnschrift;-inkscape-font-specification:Bahnschrift;text-align:center;text-anchor:middle;fill:#9dc3e6;fill-opacity:1;stroke-width:0.264583"
         id="path1488" />
      <path
         d="m 133.94647,79.506142 3.86334,-4.659157 h 1.73633 l -5.69372,6.409959 z m -0.63666,-7.668799 h 1.47589 v 10.519278 h -1.47589 z m 2.38023,6.185682 0.94774,-0.983921 3.27733,5.317517 H 138.309 Z"
         style="font-style:normal;font-variant:normal;font-weight:normal;font-stretch:normal;font-size:14.8167px;font-family:Bahnschrift;-inkscape-font-specification:Bahnschrift;text-align:center;text-anchor:middle;fill:#9dc3e6;fill-opacity:1;stroke-width:0.264583"
         id="path1490" />
      <path
         d="m 143.80015,82.465142 q -0.66559,0 -1.2516,-0.130225 -0.57878,-0.130225 -1.08521,-0.390675 -0.50643,-0.26045 -0.93328,-0.651125 v 0 l 0.8754,-1.077972 v 0 q 0.60772,0.463021 1.2082,0.694532 0.60048,0.231511 1.18649,0.231511 0.8754,0 1.30949,-0.267684 0.44131,-0.274919 0.44131,-0.817523 0,-0.361736 -0.23874,-0.542604 -0.23875,-0.180868 -0.59325,-0.238746 -0.3545,-0.06511 -0.99839,-0.115755 -0.0579,0 -0.12299,0 -0.0651,-0.0072 -0.12299,-0.01447 -0.0289,0 -0.0579,0 -0.0289,-0.0072 -0.0579,-0.0072 -0.7307,-0.05788 -1.23713,-0.209807 -0.50643,-0.159164 -0.84646,-0.586012 -0.3328,-0.426848 -0.3328,-1.222667 0,-0.795819 0.32556,-1.323953 0.32556,-0.528135 0.96945,-0.788584 0.64389,-0.267685 1.61335,-0.267685 0.58601,0 1.11414,0.108521 0.53537,0.108521 1.0201,0.325562 0.48472,0.209807 0.93328,0.535369 v 0 l -0.88988,1.077973 v 0 q -0.5643,-0.361736 -1.11414,-0.542604 -0.54261,-0.180868 -1.0635,-0.180868 -0.75242,0 -1.12862,0.26045 -0.37621,0.253215 -0.37621,0.76688 0,0.303858 0.20981,0.455787 0.21704,0.151929 0.5426,0.202572 0.32557,0.05064 0.92605,0.08682 0.0434,0.0072 0.0868,0.0072 0.0506,0 0.10129,0.0072 0.0217,0 0.0434,0 0.0217,0 0.0434,0.0072 0.78858,0.05064 1.33842,0.209807 0.55707,0.159164 0.93328,0.62942 0.3762,0.470257 0.3762,1.360127 0,0.810288 -0.34726,1.345657 -0.34727,0.528134 -1.04904,0.795819 -0.69453,0.267685 -1.7508,0.267685 z"
         style="font-style:normal;font-variant:normal;font-weight:normal;font-stretch:normal;font-size:14.8167px;font-family:Bahnschrift;-inkscape-font-specification:Bahnschrift;text-align:center;text-anchor:middle;fill:#9dc3e6;fill-opacity:1;stroke-width:0.264583"
         id="path1492" />
    </g>
  </g>
</svg>
